REM DIRINDEX 1\2\4\18,1\2\4\19,1\2\5\20,1\2\5\21,1\2\6\22,1\2\6\23,1\2\7\24,1\2\8\25,1\2\9\26,1\2\10\27,1\2\10\28,1\3\11\29,1\3\11\30,1\3\11\31,1\3\11\32,1\3\12\33,1\3\12\34,1\3\12\35,1\3\12\36,1\3\13\37,1\3\13\38,1\3\13\39,1\3\13\40,1\3\14\41,1\3\14\42,1\3\15\43,1\3\15\44,1\3\16\45,1\3\16\46,1\3\17\47,1\3\17\48,1\3\17\49,1\3\17\50
REM DIRNAME cjc135,folder01,folder02,folder03,folder04,folder05,folder06,folder07,folder08,folder09,folder10,folder11,folder12,folder13,folder14,folder15,folder16,folder17,folder18,folder19,folder20,folder21,folder22,folder23,folder24,folder25,folder26,folder27,folder28,folder29,folder30,folder31,folder32,folder33,folder34,folder35,folder36,folder37,folder38,folder39,folder40,folder41,folder42,folder43,folder44,folder45,folder46,folder47,folder48,folder49
TITLE ""
FILE "09.mp3" MP3
  TRACK 01 AUDIO
    TITLE "0:"
    INDEX 01 00:00:00
  TRACK 02 AUDIO
    TITLE "18:cjc135_1353"
    INDEX 01 00:00:09
  TRACK 03 AUDIO
    TITLE "0:"
    INDEX 01 00:01:34
  TRACK 04 AUDIO
    TITLE "19:cjc135_1354"
    INDEX 01 00:01:58
  TRACK 05 AUDIO
    TITLE "0:"
    INDEX 01 00:04:19
  TRACK 06 AUDIO
    TITLE "18:cjc135_1355"
    INDEX 01 00:05:20
  TRACK 07 AUDIO
    TITLE "0:"
    INDEX 01 00:06:31
  TRACK 08 AUDIO
    TITLE "19:cjc135_1356"
    INDEX 01 00:06:57
  TRACK 09 AUDIO
    TITLE "0:"
    INDEX 01 00:09:38
  TRACK 10 AUDIO
    TITLE "18:cjc135_1357"
    INDEX 01 00:10:41
  TRACK 11 AUDIO
    TITLE "0:"
    INDEX 01 00:11:74
  TRACK 12 AUDIO
    TITLE "19:cjc135_1358"
    INDEX 01 00:12:24
  TRACK 13 AUDIO
    TITLE "0:"
    INDEX 01 00:14:25
  TRACK 14 AUDIO
    TITLE "18:cjc135_1359"
    INDEX 01 00:15:23
  TRACK 15 AUDIO
    TITLE "0:"
    INDEX 01 00:16:40
  TRACK 16 AUDIO
    TITLE "19:cjc135_1360"
    INDEX 01 00:16:67
  TRACK 17 AUDIO
    TITLE "0:"
    INDEX 01 00:18:52
  TRACK 18 AUDIO
    TITLE "18:cjc135_1361"
    INDEX 01 00:19:52
  TRACK 19 AUDIO
    TITLE "0:"
    INDEX 01 00:21:04
  TRACK 20 AUDIO
    TITLE "19:cjc135_1362"
    INDEX 01 00:21:29
  TRACK 21 AUDIO
    TITLE "0:"
    INDEX 01 00:23:10
  TRACK 22 AUDIO
    TITLE "18:cjc135_1363"
    INDEX 01 00:24:12
  TRACK 23 AUDIO
    TITLE "0:"
    INDEX 01 00:25:46
  TRACK 24 AUDIO
    TITLE "19:cjc135_1364"
    INDEX 01 00:25:70
  TRACK 25 AUDIO
    TITLE "0:"
    INDEX 01 00:28:27
  TRACK 26 AUDIO
    TITLE "18:cjc135_1365"
    INDEX 01 00:29:25
  TRACK 27 AUDIO
    TITLE "0:"
    INDEX 01 00:30:46
  TRACK 28 AUDIO
    TITLE "19:cjc135_1366"
    INDEX 01 00:30:69
  TRACK 29 AUDIO
    TITLE "0:"
    INDEX 01 00:32:43
  TRACK 30 AUDIO
    TITLE "18:cjc135_1367"
    INDEX 01 00:33:44
  TRACK 31 AUDIO
    TITLE "0:"
    INDEX 01 00:34:57
  TRACK 32 AUDIO
    TITLE "19:cjc135_1368"
    INDEX 01 00:35:08
  TRACK 33 AUDIO
    TITLE "0:"
    INDEX 01 00:38:10
  TRACK 34 AUDIO
    TITLE "18:cjc135_1369"
    INDEX 01 00:39:09
  TRACK 35 AUDIO
    TITLE "0:"
    INDEX 01 00:40:13
  TRACK 36 AUDIO
    TITLE "19:cjc135_1370"
    INDEX 01 00:40:36
  TRACK 37 AUDIO
    TITLE "0:"
    INDEX 01 00:42:53
  TRACK 38 AUDIO
    TITLE "18:cjc135_1371"
    INDEX 01 00:43:52
  TRACK 39 AUDIO
    TITLE "0:"
    INDEX 01 00:44:54
  TRACK 40 AUDIO
    TITLE "19:cjc135_1372"
    INDEX 01 00:45:06
  TRACK 41 AUDIO
    TITLE "0:"
    INDEX 01 00:46:72
  TRACK 42 AUDIO
    TITLE "18:cjc135_1373"
    INDEX 01 00:47:72
  TRACK 43 AUDIO
    TITLE "0:"
    INDEX 01 00:49:06
  TRACK 44 AUDIO
    TITLE "19:cjc135_1374"
    INDEX 01 00:49:35
  TRACK 45 AUDIO
    TITLE "0:"
    INDEX 01 00:51:48
  TRACK 46 AUDIO
    TITLE "18:cjc135_1375"
    INDEX 01 00:52:47
  TRACK 47 AUDIO
    TITLE "0:"
    INDEX 01 00:53:43
  TRACK 48 AUDIO
    TITLE "19:cjc135_1376"
    INDEX 01 00:53:66
  TRACK 49 AUDIO
    TITLE "0:"
    INDEX 01 00:55:65
  TRACK 50 AUDIO
    TITLE "18:cjc135_1377"
    INDEX 01 00:56:65
  TRACK 51 AUDIO
    TITLE "0:"
    INDEX 01 00:57:72
  TRACK 52 AUDIO
    TITLE "19:cjc135_1378"
    INDEX 01 00:58:22
  TRACK 53 AUDIO
    TITLE "0:"
    INDEX 01 01:00:19
  TRACK 54 AUDIO
    TITLE "18:cjc135_1379"
    INDEX 01 01:01:19
  TRACK 55 AUDIO
    TITLE "0:"
    INDEX 01 01:02:32
  TRACK 56 AUDIO
    TITLE "19:cjc135_1380"
    INDEX 01 01:02:57
  TRACK 57 AUDIO
    TITLE "0:"
    INDEX 01 01:04:45
  TRACK 58 AUDIO
    TITLE "18:cjc135_1381"
    INDEX 01 01:05:48
  TRACK 59 AUDIO
    TITLE "0:"
    INDEX 01 01:06:73
  TRACK 60 AUDIO
    TITLE "19:cjc135_1382"
    INDEX 01 01:07:23
  TRACK 61 AUDIO
    TITLE "0:"
    INDEX 01 01:09:50
  TRACK 62 AUDIO
    TITLE "18:cjc135_1383"
    INDEX 01 01:10:49
  TRACK 63 AUDIO
    TITLE "0:"
    INDEX 01 01:11:60
  TRACK 64 AUDIO
    TITLE "19:cjc135_1384"
    INDEX 01 01:12:17
  TRACK 65 AUDIO
    TITLE "0:"
    INDEX 01 01:14:55
  TRACK 66 AUDIO
    TITLE "18:cjc135_1385"
    INDEX 01 01:15:60
  TRACK 67 AUDIO
    TITLE "0:"
    INDEX 01 01:16:65
  TRACK 68 AUDIO
    TITLE "19:cjc135_1386"
    INDEX 01 01:17:14
  TRACK 69 AUDIO
    TITLE "0:"
    INDEX 01 01:18:58
  TRACK 70 AUDIO
    TITLE "18:cjc135_1387"
    INDEX 01 01:19:58
  TRACK 71 AUDIO
    TITLE "0:"
    INDEX 01 01:20:57
  TRACK 72 AUDIO
    TITLE "19:cjc135_1388"
    INDEX 01 01:21:08
  TRACK 73 AUDIO
    TITLE "0:"
    INDEX 01 01:22:35
  TRACK 74 AUDIO
    TITLE "18:cjc135_1389"
    INDEX 01 01:23:34
  TRACK 75 AUDIO
    TITLE "0:"
    INDEX 01 01:24:47
  TRACK 76 AUDIO
    TITLE "19:cjc135_1390"
    INDEX 01 01:24:73
  TRACK 77 AUDIO
    TITLE "0:"
    INDEX 01 01:27:18
  TRACK 78 AUDIO
    TITLE "18:cjc135_1391"
    INDEX 01 01:28:18
  TRACK 79 AUDIO
    TITLE "0:"
    INDEX 01 01:29:41
  TRACK 80 AUDIO
    TITLE "19:cjc135_1392"
    INDEX 01 01:29:68
  TRACK 81 AUDIO
    TITLE "0:"
    INDEX 01 01:32:68
  TRACK 82 AUDIO
    TITLE "18:cjc135_1393"
    INDEX 01 01:33:68
  TRACK 83 AUDIO
    TITLE "0:"
    INDEX 01 01:35:00
  TRACK 84 AUDIO
    TITLE "19:cjc135_1394"
    INDEX 01 01:35:26
  TRACK 85 AUDIO
    TITLE "0:"
    INDEX 01 01:37:15
  TRACK 86 AUDIO
    TITLE "18:cjc135_1395"
    INDEX 01 01:38:14
  TRACK 87 AUDIO
    TITLE "0:"
    INDEX 01 01:39:45
  TRACK 88 AUDIO
    TITLE "19:cjc135_1396"
    INDEX 01 01:39:66
  TRACK 89 AUDIO
    TITLE "0:"
    INDEX 01 01:42:31
  TRACK 90 AUDIO
    TITLE "18:cjc135_1397"
    INDEX 01 01:43:33
  TRACK 91 AUDIO
    TITLE "0:"
    INDEX 01 01:44:42
  TRACK 92 AUDIO
    TITLE "19:cjc135_1398"
    INDEX 01 01:44:68
  TRACK 93 AUDIO
    TITLE "0:"
    INDEX 01 01:46:66
  TRACK 94 AUDIO
    TITLE "18:cjc135_1399"
    INDEX 01 01:47:68
  TRACK 95 AUDIO
    TITLE "0:"
    INDEX 01 01:49:22
  TRACK 96 AUDIO
    TITLE "19:cjc135_1400"
    INDEX 01 01:49:47
  TRACK 97 AUDIO
    TITLE "0:"
    INDEX 01 01:52:06
  TRACK 98 AUDIO
    TITLE "18:cjc135_1401"
    INDEX 01 01:53:04
  TRACK 99 AUDIO
    TITLE "0:"
    INDEX 01 01:54:17
  TRACK 100 AUDIO
    TITLE "19:cjc135_1402"
    INDEX 01 01:54:42
  TRACK 101 AUDIO
    TITLE "0:"
    INDEX 01 01:56:57
  TRACK 102 AUDIO
    TITLE "18:cjc135_1403"
    INDEX 01 01:57:57
  TRACK 103 AUDIO
    TITLE "0:"
    INDEX 01 01:58:72
  TRACK 104 AUDIO
    TITLE "19:cjc135_1404"
    INDEX 01 01:59:20
  TRACK 105 AUDIO
    TITLE "0:"
    INDEX 01 02:01:52
  TRACK 106 AUDIO
    TITLE "18:cjc135_1405"
    INDEX 01 02:02:52
  TRACK 107 AUDIO
    TITLE "0:"
    INDEX 01 02:03:73
  TRACK 108 AUDIO
    TITLE "19:cjc135_1406"
    INDEX 01 02:04:23
  TRACK 109 AUDIO
    TITLE "0:"
    INDEX 01 02:06:73
  TRACK 110 AUDIO
    TITLE "18:cjc135_1407"
    INDEX 01 02:08:00
  TRACK 111 AUDIO
    TITLE "0:"
    INDEX 01 02:09:11
  TRACK 112 AUDIO
    TITLE "19:cjc135_1408"
    INDEX 01 02:09:34
  TRACK 113 AUDIO
    TITLE "0:"
    INDEX 01 02:11:43
  TRACK 114 AUDIO
    TITLE "18:cjc135_1409"
    INDEX 01 02:12:42
  TRACK 115 AUDIO
    TITLE "0:"
    INDEX 01 02:13:69
  TRACK 116 AUDIO
    TITLE "19:cjc135_1410"
    INDEX 01 02:14:18
  TRACK 117 AUDIO
    TITLE "0:"
    INDEX 01 02:16:13
  TRACK 118 AUDIO
    TITLE "18:cjc135_1411"
    INDEX 01 02:17:14
  TRACK 119 AUDIO
    TITLE "0:"
    INDEX 01 02:18:31
  TRACK 120 AUDIO
    TITLE "19:cjc135_1412"
    INDEX 01 02:18:55
  TRACK 121 AUDIO
    TITLE "0:"
    INDEX 01 02:21:26
  TRACK 122 AUDIO
    TITLE "18:cjc135_1413"
    INDEX 01 02:22:25
  TRACK 123 AUDIO
    TITLE "0:"
    INDEX 01 02:23:52
  TRACK 124 AUDIO
    TITLE "19:cjc135_1414"
    INDEX 01 02:24:00
  TRACK 125 AUDIO
    TITLE "0:"
    INDEX 01 02:25:74
  TRACK 126 AUDIO
    TITLE "18:cjc135_1415"
    INDEX 01 02:26:74
  TRACK 127 AUDIO
    TITLE "0:"
    INDEX 01 02:28:04
  TRACK 128 AUDIO
    TITLE "19:cjc135_1416"
    INDEX 01 02:28:30
  TRACK 129 AUDIO
    TITLE "0:"
    INDEX 01 02:30:66
  TRACK 130 AUDIO
    TITLE "18:cjc135_1417"
    INDEX 01 02:31:65
  TRACK 131 AUDIO
    TITLE "0:"
    INDEX 01 02:33:07
  TRACK 132 AUDIO
    TITLE "19:cjc135_1418"
    INDEX 01 02:33:33
  TRACK 133 AUDIO
    TITLE "0:"
    INDEX 01 02:35:24
  TRACK 134 AUDIO
    TITLE "18:cjc135_1419"
    INDEX 01 02:36:29
  TRACK 135 AUDIO
    TITLE "0:"
    INDEX 01 02:37:50
  TRACK 136 AUDIO
    TITLE "19:cjc135_1420"
    INDEX 01 02:37:74
  TRACK 137 AUDIO
    TITLE "0:"
    INDEX 01 02:40:60
  TRACK 138 AUDIO
    TITLE "18:cjc135_1421"
    INDEX 01 02:41:60
  TRACK 139 AUDIO
    TITLE "0:"
    INDEX 01 02:43:08
  TRACK 140 AUDIO
    TITLE "19:cjc135_1422"
    INDEX 01 02:43:31
  TRACK 141 AUDIO
    TITLE "0:"
    INDEX 01 02:45:69
  TRACK 142 AUDIO
    TITLE "18:cjc135_1423"
    INDEX 01 02:46:67
  TRACK 143 AUDIO
    TITLE "0:"
    INDEX 01 02:47:68
  TRACK 144 AUDIO
    TITLE "19:cjc135_1424"
    INDEX 01 02:48:17
  TRACK 145 AUDIO
    TITLE "0:"
    INDEX 01 02:50:10
  TRACK 146 AUDIO
    TITLE "18:cjc135_1425"
    INDEX 01 02:51:13
  TRACK 147 AUDIO
    TITLE "0:"
    INDEX 01 02:52:22
  TRACK 148 AUDIO
    TITLE "19:cjc135_1426"
    INDEX 01 02:52:48
  TRACK 149 AUDIO
    TITLE "0:"
    INDEX 01 02:54:68
  TRACK 150 AUDIO
    TITLE "18:cjc135_1427"
    INDEX 01 02:55:68
  TRACK 151 AUDIO
    TITLE "0:"
    INDEX 01 02:57:00
  TRACK 152 AUDIO
    TITLE "19:cjc135_1428"
    INDEX 01 02:57:25
  TRACK 153 AUDIO
    TITLE "0:"
    INDEX 01 02:59:73
  TRACK 154 AUDIO
    TITLE "18:cjc135_1429"
    INDEX 01 03:00:73
  TRACK 155 AUDIO
    TITLE "0:"
    INDEX 01 03:01:74
  TRACK 156 AUDIO
    TITLE "19:cjc135_1430"
    INDEX 01 03:02:25
  TRACK 157 AUDIO
    TITLE "0:"
    INDEX 01 03:04:16
  TRACK 158 AUDIO
    TITLE "18:cjc135_1431"
    INDEX 01 03:05:15
  TRACK 159 AUDIO
    TITLE "0:"
    INDEX 01 03:06:26
  TRACK 160 AUDIO
    TITLE "19:cjc135_1432"
    INDEX 01 03:06:50
  TRACK 161 AUDIO
    TITLE "0:"
    INDEX 01 03:08:47
  TRACK 162 AUDIO
    TITLE "18:cjc135_1433"
    INDEX 01 03:09:46
  TRACK 163 AUDIO
    TITLE "0:"
    INDEX 01 03:11:06
  TRACK 164 AUDIO
    TITLE "19:cjc135_1434"
    INDEX 01 03:11:31
  TRACK 165 AUDIO
    TITLE "0:"
    INDEX 01 03:13:71
  TRACK 166 AUDIO
    TITLE "18:cjc135_1435"
    INDEX 01 03:14:73
  TRACK 167 AUDIO
    TITLE "0:"
    INDEX 01 03:16:21
  TRACK 168 AUDIO
    TITLE "19:cjc135_1436"
    INDEX 01 03:16:46
  TRACK 169 AUDIO
    TITLE "0:"
    INDEX 01 03:19:19
  TRACK 170 AUDIO
    TITLE "18:cjc135_1437"
    INDEX 01 03:20:21
  TRACK 171 AUDIO
    TITLE "0:"
    INDEX 01 03:21:24
  TRACK 172 AUDIO
    TITLE "19:cjc135_1438"
    INDEX 01 03:21:49
  TRACK 173 AUDIO
    TITLE "0:"
    INDEX 01 03:23:31
  TRACK 174 AUDIO
    TITLE "18:cjc135_1439"
    INDEX 01 03:24:30
  TRACK 175 AUDIO
    TITLE "0:"
    INDEX 01 03:25:47
  TRACK 176 AUDIO
    TITLE "19:cjc135_1440"
    INDEX 01 03:25:73
  TRACK 177 AUDIO
    TITLE "0:"
    INDEX 01 03:28:14
  TRACK 178 AUDIO
    TITLE "18:cjc135_1441"
    INDEX 01 03:29:16
  TRACK 179 AUDIO
    TITLE "0:"
    INDEX 01 03:30:25
  TRACK 180 AUDIO
    TITLE "19:cjc135_1442"
    INDEX 01 03:30:50
  TRACK 181 AUDIO
    TITLE "0:"
    INDEX 01 03:32:65
  TRACK 182 AUDIO
    TITLE "18:cjc135_1443"
    INDEX 01 03:33:62
  TRACK 183 AUDIO
    TITLE "0:"
    INDEX 01 03:34:72
  TRACK 184 AUDIO
    TITLE "19:cjc135_1444"
    INDEX 01 03:35:24
  TRACK 185 AUDIO
    TITLE "0:"
    INDEX 01 03:37:15
  TRACK 186 AUDIO
    TITLE "18:cjc135_1445"
    INDEX 01 03:38:15
  TRACK 187 AUDIO
    TITLE "0:"
    INDEX 01 03:39:26
  TRACK 188 AUDIO
    TITLE "19:cjc135_1446"
    INDEX 01 03:39:49
  TRACK 189 AUDIO
    TITLE "0:"
    INDEX 01 03:42:55
  TRACK 190 AUDIO
    TITLE "18:cjc135_1447"
    INDEX 01 03:43:55
  TRACK 191 AUDIO
    TITLE "0:"
    INDEX 01 03:44:68
  TRACK 192 AUDIO
    TITLE "19:cjc135_1448"
    INDEX 01 03:45:17
  TRACK 193 AUDIO
    TITLE "0:"
    INDEX 01 03:47:27
  TRACK 194 AUDIO
    TITLE "18:cjc135_1449"
    INDEX 01 03:48:27
  TRACK 195 AUDIO
    TITLE "0:"
    INDEX 01 03:49:42
  TRACK 196 AUDIO
    TITLE "19:cjc135_1450"
    INDEX 01 03:49:65
  TRACK 197 AUDIO
    TITLE "0:"
    INDEX 01 03:52:26
  TRACK 198 AUDIO
    TITLE "18:cjc135_1451"
    INDEX 01 03:53:28
  TRACK 199 AUDIO
    TITLE "0:"
    INDEX 01 03:54:33
  TRACK 200 AUDIO
    TITLE "19:cjc135_1452"
    INDEX 01 03:54:57
  TRACK 201 AUDIO
    TITLE "0:"
    INDEX 01 03:56:46
  TRACK 202 AUDIO
    TITLE "18:cjc135_1453"
    INDEX 01 03:57:45
  TRACK 203 AUDIO
    TITLE "0:"
    INDEX 01 03:58:49
  TRACK 204 AUDIO
    TITLE "19:cjc135_1454"
    INDEX 01 03:58:74
  TRACK 205 AUDIO
    TITLE "0:"
    INDEX 01 04:01:00
  TRACK 206 AUDIO
    TITLE "18:cjc135_1455"
    INDEX 01 04:01:72
  TRACK 207 AUDIO
    TITLE "0:"
    INDEX 01 04:02:66
  TRACK 208 AUDIO
    TITLE "19:cjc135_1456"
    INDEX 01 04:03:16
  TRACK 209 AUDIO
    TITLE "0:"
    INDEX 01 04:04:57
  TRACK 210 AUDIO
    TITLE "18:cjc135_1457"
    INDEX 01 04:05:57
  TRACK 211 AUDIO
    TITLE "0:"
    INDEX 01 04:06:62
  TRACK 212 AUDIO
    TITLE "19:cjc135_1458"
    INDEX 01 04:07:12
  TRACK 213 AUDIO
    TITLE "0:"
    INDEX 01 04:09:35
  TRACK 214 AUDIO
    TITLE "18:cjc135_1459"
    INDEX 01 04:10:34
  TRACK 215 AUDIO
    TITLE "0:"
    INDEX 01 04:11:55
  TRACK 216 AUDIO
    TITLE "19:cjc135_1460"
    INDEX 01 04:12:02
  TRACK 217 AUDIO
    TITLE "0:"
    INDEX 01 04:14:16
  TRACK 218 AUDIO
    TITLE "18:cjc135_1461"
    INDEX 01 04:15:12
  TRACK 219 AUDIO
    TITLE "0:"
    INDEX 01 04:16:25
  TRACK 220 AUDIO
    TITLE "19:cjc135_1462"
    INDEX 01 04:16:54
  TRACK 221 AUDIO
    TITLE "0:"
    INDEX 01 04:19:02
  TRACK 222 AUDIO
    TITLE "18:cjc135_1463"
    INDEX 01 04:19:74
  TRACK 223 AUDIO
    TITLE "0:"
    INDEX 01 04:21:14
  TRACK 224 AUDIO
    TITLE "19:cjc135_1464"
    INDEX 01 04:21:40
  TRACK 225 AUDIO
    TITLE "0:"
    INDEX 01 04:23:25
  TRACK 226 AUDIO
    TITLE "18:cjc135_1465"
    INDEX 01 04:24:24
  TRACK 227 AUDIO
    TITLE "0:"
    INDEX 01 04:25:40
  TRACK 228 AUDIO
    TITLE "19:cjc135_1466"
    INDEX 01 04:25:61
  TRACK 229 AUDIO
    TITLE "0:"
    INDEX 01 04:28:14
  TRACK 230 AUDIO
    TITLE "18:cjc135_1467"
    INDEX 01 04:29:14
  TRACK 231 AUDIO
    TITLE "0:"
    INDEX 01 04:30:19
  TRACK 232 AUDIO
    TITLE "19:cjc135_1468"
    INDEX 01 04:30:45
  TRACK 233 AUDIO
    TITLE "0:"
    INDEX 01 04:32:28
  TRACK 234 AUDIO
    TITLE "18:cjc135_1469"
    INDEX 01 04:33:27
  TRACK 235 AUDIO
    TITLE "0:"
    INDEX 01 04:34:46
  TRACK 236 AUDIO
    TITLE "19:cjc135_1470"
    INDEX 01 04:34:70
  TRACK 237 AUDIO
    TITLE "0:"
    INDEX 01 04:36:69
  TRACK 238 AUDIO
    TITLE "18:cjc135_1471"
    INDEX 01 04:37:66
  TRACK 239 AUDIO
    TITLE "0:"
    INDEX 01 04:39:14
  TRACK 240 AUDIO
    TITLE "19:cjc135_1472"
    INDEX 01 04:39:38
  TRACK 241 AUDIO
    TITLE "0:"
    INDEX 01 04:41:27
  TRACK 242 AUDIO
    TITLE "18:cjc135_1473"
    INDEX 01 04:42:24
  TRACK 243 AUDIO
    TITLE "0:"
    INDEX 01 04:43:51
  TRACK 244 AUDIO
    TITLE "19:cjc135_1474"
    INDEX 01 04:44:02
  TRACK 245 AUDIO
    TITLE "0:"
    INDEX 01 04:46:36
  TRACK 246 AUDIO
    TITLE "18:cjc135_1475"
    INDEX 01 04:47:39
  TRACK 247 AUDIO
    TITLE "0:"
    INDEX 01 04:48:35
  TRACK 248 AUDIO
    TITLE "19:cjc135_1476"
    INDEX 01 04:48:60
  TRACK 249 AUDIO
    TITLE "0:"
    INDEX 01 04:50:30
  TRACK 250 AUDIO
    TITLE "18:cjc135_1477"
    INDEX 01 04:51:29
  TRACK 251 AUDIO
    TITLE "0:"
    INDEX 01 04:52:52
  TRACK 252 AUDIO
    TITLE "19:cjc135_1478"
    INDEX 01 04:53:03
  TRACK 253 AUDIO
    TITLE "0:"
    INDEX 01 04:55:17
  TRACK 254 AUDIO
    TITLE "18:cjc135_1479"
    INDEX 01 04:56:17
  TRACK 255 AUDIO
    TITLE "0:"
    INDEX 01 04:57:45
  TRACK 256 AUDIO
    TITLE "19:cjc135_1480"
    INDEX 01 04:57:69
  TRACK 257 AUDIO
    TITLE "0:"
    INDEX 01 05:00:73
  TRACK 258 AUDIO
    TITLE "18:cjc135_1481"
    INDEX 01 05:01:73
  TRACK 259 AUDIO
    TITLE "0:"
    INDEX 01 05:03:05
  TRACK 260 AUDIO
    TITLE "19:cjc135_1482"
    INDEX 01 05:03:30
  TRACK 261 AUDIO
    TITLE "0:"
    INDEX 01 05:05:41
  TRACK 262 AUDIO
    TITLE "18:cjc135_1483"
    INDEX 01 05:06:41
  TRACK 263 AUDIO
    TITLE "0:"
    INDEX 01 05:07:52
  TRACK 264 AUDIO
    TITLE "19:cjc135_1484"
    INDEX 01 05:08:02
  TRACK 265 AUDIO
    TITLE "0:"
    INDEX 01 05:09:74
  TRACK 266 AUDIO
    TITLE "18:cjc135_1485"
    INDEX 01 05:10:74
  TRACK 267 AUDIO
    TITLE "0:"
    INDEX 01 05:12:10
  TRACK 268 AUDIO
    TITLE "19:cjc135_1486"
    INDEX 01 05:12:35
  TRACK 269 AUDIO
    TITLE "0:"
    INDEX 01 05:14:60
  TRACK 270 AUDIO
    TITLE "18:cjc135_1487"
    INDEX 01 05:15:63
  TRACK 271 AUDIO
    TITLE "0:"
    INDEX 01 05:16:70
  TRACK 272 AUDIO
    TITLE "19:cjc135_1488"
    INDEX 01 05:17:21
  TRACK 273 AUDIO
    TITLE "0:"
    INDEX 01 05:19:00
  TRACK 274 AUDIO
    TITLE "18:cjc135_1489"
    INDEX 01 05:20:00
  TRACK 275 AUDIO
    TITLE "0:"
    INDEX 01 05:21:22
  TRACK 276 AUDIO
    TITLE "19:cjc135_1490"
    INDEX 01 05:21:44
  TRACK 277 AUDIO
    TITLE "0:"
    INDEX 01 05:24:58
  TRACK 278 AUDIO
    TITLE "18:cjc135_1491"
    INDEX 01 05:25:57
  TRACK 279 AUDIO
    TITLE "0:"
    INDEX 01 05:26:73
  TRACK 280 AUDIO
    TITLE "19:cjc135_1492"
    INDEX 01 05:27:23
  TRACK 281 AUDIO
    TITLE "0:"
    INDEX 01 05:30:25
  TRACK 282 AUDIO
    TITLE "18:cjc135_1493"
    INDEX 01 05:31:25
  TRACK 283 AUDIO
    TITLE "0:"
    INDEX 01 05:32:48
  TRACK 284 AUDIO
    TITLE "19:cjc135_1494"
    INDEX 01 05:32:71
  TRACK 285 AUDIO
    TITLE "0:"
    INDEX 01 05:36:04
  TRACK 286 AUDIO
    TITLE "18:cjc135_1495"
    INDEX 01 05:37:08
  TRACK 287 AUDIO
    TITLE "0:"
    INDEX 01 05:38:13
  TRACK 288 AUDIO
    TITLE "19:cjc135_1496"
    INDEX 01 05:38:37
  TRACK 289 AUDIO
    TITLE "0:"
    INDEX 01 05:41:37
  TRACK 290 AUDIO
    TITLE "18:cjc135_1497"
    INDEX 01 05:42:34
  TRACK 291 AUDIO
    TITLE "0:"
    INDEX 01 05:43:28
  TRACK 292 AUDIO
    TITLE "19:cjc135_1498"
    INDEX 01 05:43:51
  TRACK 293 AUDIO
    TITLE "0:"
    INDEX 01 05:45:17
  TRACK 294 AUDIO
    TITLE "18:cjc135_1499"
    INDEX 01 05:46:15
  TRACK 295 AUDIO
    TITLE "0:"
    INDEX 01 05:47:36
  TRACK 296 AUDIO
    TITLE "19:cjc135_1500"
    INDEX 01 05:47:63
  TRACK 297 AUDIO
    TITLE "0:"
    INDEX 01 05:50:22
  TRACK 298 AUDIO
    TITLE "18:cjc135_1501"
    INDEX 01 05:51:27
  TRACK 299 AUDIO
    TITLE "0:"
    INDEX 01 05:52:43
  TRACK 300 AUDIO
    TITLE "19:cjc135_1502"
    INDEX 01 05:52:68
  TRACK 301 AUDIO
    TITLE "0:"
    INDEX 01 05:55:10
  TRACK 302 AUDIO
    TITLE "18:cjc135_1503"
    INDEX 01 05:56:07
  TRACK 303 AUDIO
    TITLE "0:"
    INDEX 01 05:57:34
  TRACK 304 AUDIO
    TITLE "19:cjc135_1504"
    INDEX 01 05:57:57
  TRACK 305 AUDIO
    TITLE "0:"
    INDEX 01 06:00:03
  TRACK 306 AUDIO
    TITLE "18:cjc135_1505"
    INDEX 01 06:01:02
  TRACK 307 AUDIO
    TITLE "0:"
    INDEX 01 06:02:10
  TRACK 308 AUDIO
    TITLE "19:cjc135_1506"
    INDEX 01 06:02:35
  TRACK 309 AUDIO
    TITLE "0:"
    INDEX 01 06:04:65
  TRACK 310 AUDIO
    TITLE "18:cjc135_1507"
    INDEX 01 06:05:65
  TRACK 311 AUDIO
    TITLE "0:"
    INDEX 01 06:07:15
  TRACK 312 AUDIO
    TITLE "19:cjc135_1508"
    INDEX 01 06:07:40
  TRACK 313 AUDIO
    TITLE "0:"
    INDEX 01 06:09:70
  TRACK 314 AUDIO
    TITLE "18:cjc135_1509"
    INDEX 01 06:10:70
  TRACK 315 AUDIO
    TITLE "0:"
    INDEX 01 06:12:08
  TRACK 316 AUDIO
    TITLE "19:cjc135_1510"
    INDEX 01 06:12:32
  TRACK 317 AUDIO
    TITLE "0:"
    INDEX 01 06:14:58
  TRACK 318 AUDIO
    TITLE "18:cjc135_1511"
    INDEX 01 06:15:57
  TRACK 319 AUDIO
    TITLE "0:"
    INDEX 01 06:17:13
  TRACK 320 AUDIO
    TITLE "19:cjc135_1512"
    INDEX 01 06:17:37
  TRACK 321 AUDIO
    TITLE "0:"
    INDEX 01 06:19:41
  TRACK 322 AUDIO
    TITLE "18:cjc135_1513"
    INDEX 01 06:20:43
  TRACK 323 AUDIO
    TITLE "0:"
    INDEX 01 06:21:60
  TRACK 324 AUDIO
    TITLE "19:cjc135_1514"
    INDEX 01 06:22:10
  TRACK 325 AUDIO
    TITLE "0:"
    INDEX 01 06:23:67
  TRACK 326 AUDIO
    TITLE "18:cjc135_1515"
    INDEX 01 06:24:68
  TRACK 327 AUDIO
    TITLE "0:"
    INDEX 01 06:26:00
  TRACK 328 AUDIO
    TITLE "19:cjc135_1516"
    INDEX 01 06:26:24
  TRACK 329 AUDIO
    TITLE "0:"
    INDEX 01 06:28:17
  TRACK 330 AUDIO
    TITLE "18:cjc135_1517"
    INDEX 01 06:29:16
  TRACK 331 AUDIO
    TITLE "0:"
    INDEX 01 06:30:39
  TRACK 332 AUDIO
    TITLE "19:cjc135_1518"
    INDEX 01 06:30:65
  TRACK 333 AUDIO
    TITLE "0:"
    INDEX 01 06:32:46
  TRACK 334 AUDIO
    TITLE "18:cjc135_1519"
    INDEX 01 06:33:45
  TRACK 335 AUDIO
    TITLE "0:"
    INDEX 01 06:34:43
  TRACK 336 AUDIO
    TITLE "19:cjc135_1520"
    INDEX 01 06:34:66
  TRACK 337 AUDIO
    TITLE "0:"
    INDEX 01 06:36:56
  TRACK 338 AUDIO
    TITLE "18:cjc135_1521"
    INDEX 01 06:37:57
  TRACK 339 AUDIO
    TITLE "0:"
    INDEX 01 06:39:07
  TRACK 340 AUDIO
    TITLE "19:cjc135_1522"
    INDEX 01 06:39:30
  TRACK 341 AUDIO
    TITLE "0:"
    INDEX 01 06:42:44
  TRACK 342 AUDIO
    TITLE "18:cjc135_1523"
    INDEX 01 06:43:42
  TRACK 343 AUDIO
    TITLE "0:"
    INDEX 01 06:44:51
  TRACK 344 AUDIO
    TITLE "19:cjc135_1524"
    INDEX 01 06:45:00
  TRACK 345 AUDIO
    TITLE "0:"
    INDEX 01 06:48:06
  TRACK 346 AUDIO
    TITLE "18:cjc135_1525"
    INDEX 01 06:49:07
  TRACK 347 AUDIO
    TITLE "0:"
    INDEX 01 06:50:26
  TRACK 348 AUDIO
    TITLE "19:cjc135_1526"
    INDEX 01 06:50:50
  TRACK 349 AUDIO
    TITLE "0:"
    INDEX 01 06:52:55
  TRACK 350 AUDIO
    TITLE "18:cjc135_1527"
    INDEX 01 06:53:56
  TRACK 351 AUDIO
    TITLE "0:"
    INDEX 01 06:54:73
  TRACK 352 AUDIO
    TITLE "19:cjc135_1528"
    INDEX 01 06:55:22
  TRACK 353 AUDIO
    TITLE "0:"
    INDEX 01 06:58:26
  TRACK 354 AUDIO
    TITLE "18:cjc135_1529"
    INDEX 01 06:59:25
  TRACK 355 AUDIO
    TITLE "0:"
    INDEX 01 07:00:42
  TRACK 356 AUDIO
    TITLE "19:cjc135_1530"
    INDEX 01 07:00:68
  TRACK 357 AUDIO
    TITLE "0:"
    INDEX 01 07:02:67
  TRACK 358 AUDIO
    TITLE "18:cjc135_1531"
    INDEX 01 07:03:64
  TRACK 359 AUDIO
    TITLE "0:"
    INDEX 01 07:05:06
  TRACK 360 AUDIO
    TITLE "19:cjc135_1532"
    INDEX 01 07:05:32
  TRACK 361 AUDIO
    TITLE "0:"
    INDEX 01 07:07:19
  TRACK 362 AUDIO
    TITLE "18:cjc135_1533"
    INDEX 01 07:08:16
  TRACK 363 AUDIO
    TITLE "0:"
    INDEX 01 07:09:22
  TRACK 364 AUDIO
    TITLE "19:cjc135_1534"
    INDEX 01 07:09:45
  TRACK 365 AUDIO
    TITLE "0:"
    INDEX 01 07:12:32
  TRACK 366 AUDIO
    TITLE "18:cjc135_1535"
    INDEX 01 07:13:33
  TRACK 367 AUDIO
    TITLE "0:"
    INDEX 01 07:14:39
  TRACK 368 AUDIO
    TITLE "19:cjc135_1536"
    INDEX 01 07:14:64
  TRACK 369 AUDIO
    TITLE "0:"
    INDEX 01 07:16:41
  TRACK 370 AUDIO
    TITLE "18:cjc135_1537"
    INDEX 01 07:17:43
  TRACK 371 AUDIO
    TITLE "0:"
    INDEX 01 07:18:48
  TRACK 372 AUDIO
    TITLE "19:cjc135_1538"
    INDEX 01 07:18:72
  TRACK 373 AUDIO
    TITLE "0:"
    INDEX 01 07:21:01
  TRACK 374 AUDIO
    TITLE "18:cjc135_1539"
    INDEX 01 07:21:74
  TRACK 375 AUDIO
    TITLE "0:"
    INDEX 01 07:23:06
  TRACK 376 AUDIO
    TITLE "19:cjc135_1540"
    INDEX 01 07:23:32
  TRACK 377 AUDIO
    TITLE "0:"
    INDEX 01 07:24:70
  TRACK 378 AUDIO
    TITLE "18:cjc135_1541"
    INDEX 01 07:25:70
  TRACK 379 AUDIO
    TITLE "0:"
    INDEX 01 07:27:06
  TRACK 380 AUDIO
    TITLE "19:cjc135_1542"
    INDEX 01 07:27:29
  TRACK 381 AUDIO
    TITLE "0:"
    INDEX 01 07:28:70
  TRACK 382 AUDIO
    TITLE "18:cjc135_1543"
    INDEX 01 07:29:69
  TRACK 383 AUDIO
    TITLE "0:"
    INDEX 01 07:31:02
  TRACK 384 AUDIO
    TITLE "19:cjc135_1544"
    INDEX 01 07:31:25
  TRACK 385 AUDIO
    TITLE "0:"
    INDEX 01 07:33:38
  TRACK 386 AUDIO
    TITLE "18:cjc135_1545"
    INDEX 01 07:34:37
  TRACK 387 AUDIO
    TITLE "0:"
    INDEX 01 07:35:47
  TRACK 388 AUDIO
    TITLE "19:cjc135_1546"
    INDEX 01 07:35:72
  TRACK 389 AUDIO
    TITLE "0:"
    INDEX 01 07:37:59
  TRACK 390 AUDIO
    TITLE "18:cjc135_1547"
    INDEX 01 07:38:61
  TRACK 391 AUDIO
    TITLE "0:"
    INDEX 01 07:39:64
  TRACK 392 AUDIO
    TITLE "19:cjc135_1548"
    INDEX 01 07:40:14
  TRACK 393 AUDIO
    TITLE "0:"
    INDEX 01 07:42:13
  TRACK 394 AUDIO
    TITLE "18:cjc135_1549"
    INDEX 01 07:43:13
  TRACK 395 AUDIO
    TITLE "0:"
    INDEX 01 07:44:22
  TRACK 396 AUDIO
    TITLE "19:cjc135_1550"
    INDEX 01 07:44:48
  TRACK 397 AUDIO
    TITLE "0:"
    INDEX 01 07:46:62
  TRACK 398 AUDIO
    TITLE "18:cjc135_1551"
    INDEX 01 07:47:60
  TRACK 399 AUDIO
    TITLE "0:"
    INDEX 01 07:49:00
  TRACK 400 AUDIO
    TITLE "19:cjc135_1552"
    INDEX 01 07:49:25
  TRACK 401 AUDIO
    TITLE "0:"
    INDEX 01 07:50:74
